<svg width="103" height="103" viewBox="0 0 103 103" fill="none" xmlns="http://www.w3.org/2000/svg">
<path d="M81.5417 12.875H21.4583C16.7179 12.875 12.875 16.7179 12.875 21.4583V81.5417C12.875 86.2821 16.7179 90.125 21.4583 90.125H81.5417C86.2821 90.125 90.125 86.2821 90.125 81.5417V21.4583C90.125 16.7179 86.2821 12.875 81.5417 12.875Z" stroke="#676F9D" stroke-width="2" stroke-linecap="round" stroke-linejoin="round"/>
<path d="M36.4795 42.9167C40.0348 42.9167 42.917 40.0346 42.917 36.4792C42.917 32.9239 40.0348 30.0417 36.4795 30.0417C32.9242 30.0417 30.042 32.9239 30.042 36.4792C30.042 40.0346 32.9242 42.9167 36.4795 42.9167Z" stroke="#676F9D" stroke-width="2" stroke-linecap="round" stroke-linejoin="round"/>
<path d="M90.1247 64.3751L68.6663 42.9167L21.458 90.1251" stroke="#676F9D" stroke-width="2" stroke-linecap="round" stroke-linejoin="round"/>
</svg>
